# xmcd
#
# Track frame offsets: 
#        150
#        11955
#        23848
#        35331
#        47759
#        60370
#        71832
#        81443
#        93575
#        105180
#        114752
#        124819
#
# Disc length: 1788 seconds
#
# Revision: 3
# Processed by: cddbd v1.5.2PL0 Copyright (c) Steve Scherf et al.
# Submitted via: ExactAudioCopyFreeDBPlugin 1.0
#
DISCID=9506fa0c
DTITLE=Brenda Lee - Greatest Rock And Roll Songs
DYEAR=2004
DGENRE=Country
TTITLE0=Sweet Nothin's
TTITLE1=I'm Sorry
TTITLE2=Dum Dum
TTITLE3=Emotions
TTITLE4=All Alone Am I
TTITLE5=Break It To Me Gently
TTITLE6=Coming On Strong
TTITLE7=If You Love Me (Really Love Me)
TTITLE8=That's All You Gotta Do
TTITLE9=Dynamite
TTITLE10=Jingle Bell Rock
TTITLE11=Rockin' Around The Christmas Tree
EXTD=
EXTT0=
EXTT1=
EXTT2=
EXTT3=
EXTT4=
EXTT5=
EXTT6=
EXTT7=
EXTT8=
EXTT9=
EXTT10=
EXTT11=
PLAYORDER=
